<svg xmlns="http://www.w3.org/2000/svg" xmlns:xlink="http://www.w3.org/1999/xlink" zoomAndPan="magnify" preserveAspectRatio="xMidYMid meet" version="1.0" viewBox="6.47 166.55 1427.7 352.93"><path fill="#ffffff" d="M 157.011719 313.066406 C 157.011719 325.179688 161.011719 341.464844 174.167969 354.496094 C 195.40625 375.5625 224.25 375.53125 242.621094 365.625 C 265.125 353.511719 315.734375 317.195312 263.1875 166.554688 C 263.1875 237.652344 157.011719 244.890625 157.011719 313.050781 Z M 157.011719 313.066406 " fill-opacity="1" fill-rule="nonzero"/><path fill="#ffffff" d="M 205.363281 228.828125 C 201.871094 210.191406 196.289062 191.09375 187.902344 166.570312 C 187.902344 237.667969 81.722656 244.90625 81.722656 313.070312 C 81.722656 325.179688 85.726562 341.464844 98.882812 354.5 C 120.121094 375.5625 149.183594 375.5 167.335938 365.625 C 125.066406 320.988281 139.980469 269.304688 205.347656 228.8125 Z M 205.363281 228.828125 " fill-opacity="1" fill-rule="nonzero"/><path fill="#ffffff" d="M 130.109375 228.828125 C 126.617188 210.191406 121.03125 191.097656 112.644531 166.574219 C 112.644531 237.671875 6.46875 244.910156 6.46875 313.070312 C 6.46875 348.039062 35.023438 363.421875 35.023438 363.421875 C 35.023438 363.421875 27.898438 389.136719 32.316406 420.457031 L 45.9375 418.21875 C 39.28125 395.246094 43.359375 370.214844 43.792969 367.769531 C 61.207031 374.691406 79.195312 372.644531 92.078125 365.628906 C 49.8125 320.992188 64.726562 269.308594 130.089844 228.8125 Z M 130.109375 228.828125 " fill-opacity="1" fill-rule="nonzero"/><path fill="#ffffff" d="M 409.214844 339.019531 C 403.535156 342.480469 395.933594 344.195312 386.378906 344.195312 C 376.820312 344.195312 368.675781 341.800781 362.289062 337.003906 C 355.902344 332.210938 351.421875 326.035156 348.84375 318.480469 L 331.433594 325.765625 C 333.882812 333.195312 337.65625 339.65625 342.746094 345.148438 C 347.835938 350.65625 354.09375 354.878906 361.519531 357.816406 C 368.933594 360.753906 377.222656 362.226562 386.390625 362.226562 C 396.972656 362.226562 406.128906 360.59375 413.875 357.339844 C 421.621094 354.085938 427.574219 349.558594 431.765625 343.816406 C 435.960938 338.050781 438.054688 331.273438 438.054688 323.464844 C 438.054688 317.195312 436.566406 311.621094 433.609375 306.765625 C 430.628906 301.90625 426.148438 297.652344 420.164062 294.003906 C 414.160156 290.351562 406.574219 287.320312 397.421875 284.890625 L 380.777344 280.480469 C 373.027344 278.304688 367.089844 275.78125 362.976562 272.890625 C 358.847656 270.019531 356.785156 265.683594 356.785156 259.9375 C 356.785156 254.191406 359.328125 250.015625 364.433594 246.699219 C 369.523438 243.382812 376.339844 241.714844 384.855469 241.714844 C 393.371094 241.714844 399.980469 243.542969 405.855469 247.191406 C 411.730469 250.84375 415.828125 256.492188 418.148438 264.175781 L 435.753906 257.652344 C 433.429688 250.097656 429.941406 243.859375 425.300781 238.9375 C 420.660156 234.015625 414.882812 230.238281 407.984375 227.621094 C 401.085938 225 393.308594 223.683594 384.664062 223.683594 C 374.980469 223.683594 366.5 225.285156 359.214844 228.476562 C 351.917969 231.683594 346.253906 236.128906 342.1875 241.8125 C 338.121094 247.507812 336.089844 254.066406 336.089844 261.480469 C 336.089844 267.621094 337.417969 273.128906 340.058594 277.988281 C 342.699219 282.84375 346.734375 287.003906 352.160156 290.464844 C 357.582031 293.925781 364.164062 296.734375 371.890625 298.910156 L 388.539062 303.320312 C 395.5 305.113281 401.117188 307.035156 405.375 309.082031 C 409.632812 311.128906 412.753906 313.464844 414.753906 316.082031 C 416.753906 318.703125 417.746094 321.75 417.746094 325.195312 C 417.746094 330.957031 414.914062 335.558594 409.230469 339.019531 Z M 409.214844 339.019531 " fill-opacity="1" fill-rule="nonzero"/><path fill="#ffffff" d="M 475.589844 312.527344 L 505.773438 312.527344 C 516.097656 312.527344 524.964844 310.796875 532.390625 307.351562 C 539.800781 303.894531 545.546875 298.910156 549.613281 292.382812 C 553.679688 285.859375 555.710938 278.175781 555.710938 269.351562 C 555.710938 255.796875 551.261719 245.144531 542.363281 237.398438 C 533.464844 229.652344 521.203125 225.777344 505.582031 225.777344 L 455.648438 225.777344 L 455.648438 360.132812 L 475.589844 360.132812 Z M 504.03125 243.621094 C 513.714844 243.621094 521.253906 245.761719 526.679688 250.050781 C 532.105469 254.335938 534.808594 260.765625 534.808594 269.335938 C 534.808594 277.90625 532.105469 284.175781 526.679688 288.527344 C 521.253906 292.875 513.714844 295.050781 504.03125 295.050781 L 475.574219 295.050781 L 475.574219 243.605469 L 504.03125 243.605469 Z M 504.03125 243.621094 " fill-opacity="1" fill-rule="nonzero"/><path fill="#ffffff" d="M 626.546875 360.132812 L 699.117188 360.132812 L 699.117188 342.273438 L 626.546875 342.273438 L 626.546875 300.8125 L 691.175781 300.8125 L 691.175781 283.160156 L 626.546875 283.160156 L 626.546875 243.621094 L 699.117188 243.621094 L 699.117188 225.761719 L 606.605469 225.761719 L 606.605469 360.132812 Z M 626.546875 360.132812 " fill-opacity="1" fill-rule="nonzero"/><path fill="#ffffff" d="M 728.339844 356.671875 C 732.339844 358.972656 737.238281 360.132812 743.046875 360.132812 L 753.691406 360.132812 L 753.691406 343.625 L 745.945312 343.625 C 742.203125 343.625 739.527344 342.640625 737.914062 340.640625 C 736.296875 338.65625 735.496094 335.8125 735.496094 332.101562 L 735.496094 225.761719 L 716.527344 225.761719 L 716.527344 333.257812 C 716.527344 338.640625 717.488281 343.308594 719.425781 347.273438 C 721.363281 351.242188 724.324219 354.371094 728.324219 356.6875 Z M 728.339844 356.671875 " fill-opacity="1" fill-rule="nonzero"/><path fill="#ffffff" d="M 834.195312 328.84375 C 832.132812 332.816406 829.683594 336.035156 826.851562 338.542969 C 824.015625 341.035156 820.847656 342.832031 817.359375 343.925781 C 813.871094 345.019531 810.125 345.558594 806.140625 345.558594 C 800.585938 345.558594 795.625 344.273438 791.238281 341.71875 C 786.855469 339.164062 783.398438 335.355469 780.882812 330.289062 C 778.882812 326.257812 777.683594 321.417969 777.28125 315.796875 L 850.457031 315.796875 C 850.585938 314.910156 850.648438 314.003906 850.648438 313.113281 L 850.648438 310.621094 C 850.648438 300.636719 848.679688 291.910156 844.742188 284.414062 C 840.808594 276.921875 835.414062 271.113281 828.578125 266.953125 C 821.746094 262.796875 813.933594 260.714844 805.164062 260.714844 C 798.203125 260.714844 791.847656 261.90625 786.101562 264.273438 C 780.355469 266.636719 775.363281 270.066406 771.105469 274.542969 C 766.847656 279.019531 763.582031 284.367188 761.324219 290.574219 C 759.070312 296.78125 757.933594 303.71875 757.933594 311.398438 C 757.933594 321.511719 759.996094 330.371094 764.125 337.988281 C 768.257812 345.609375 773.9375 351.5625 781.15625 355.847656 C 788.375 360.132812 796.695312 362.273438 806.125 362.273438 C 811.804688 362.273438 817.3125 361.464844 822.671875 359.878906 C 828.019531 358.273438 832.933594 355.65625 837.382812 352.003906 C 841.832031 348.355469 845.671875 343.65625 848.890625 337.894531 L 834.179688 328.878906 Z M 784.566406 285.558594 C 786.949219 282.558594 789.878906 280.320312 793.367188 278.84375 C 796.855469 277.367188 800.730469 276.636719 804.988281 276.636719 C 812.734375 276.636719 819.085938 279.449219 824.050781 285.082031 C 827.601562 289.113281 829.859375 294.683594 830.867188 301.78125 L 777.875 301.78125 C 778.179688 299.941406 778.546875 298.144531 779.042969 296.511719 C 780.324219 292.226562 782.164062 288.574219 784.566406 285.574219 Z M 784.566406 285.558594 " fill-opacity="1" fill-rule="nonzero"/><path fill="#ffffff" d="M 885.878906 355.625 C 893.222656 359.910156 901.546875 362.054688 910.84375 362.054688 C 917.167969 362.054688 923.199219 361.101562 928.945312 359.179688 C 934.691406 357.257812 939.910156 354.132812 944.617188 349.78125 C 949.320312 345.433594 952.96875 339.796875 955.546875 332.894531 L 939.285156 325.210938 C 936.453125 332.386719 932.578125 337.496094 927.679688 340.574219 C 922.769531 343.640625 917.167969 345.179688 910.84375 345.179688 C 905.546875 345.179688 900.679688 343.894531 896.230469 341.339844 C 891.78125 338.78125 888.230469 334.972656 885.589844 329.910156 C 882.949219 324.863281 881.621094 318.6875 881.621094 311.386719 C 881.621094 305.890625 882.386719 301.019531 883.941406 296.796875 C 885.492188 292.574219 887.621094 289.050781 890.328125 286.242188 C 893.03125 283.429688 896.167969 281.289062 899.703125 279.8125 C 903.257812 278.335938 906.953125 277.605469 910.828125 277.605469 C 917.148438 277.605469 922.769531 279.113281 927.664062 282.113281 C 932.5625 285.128906 936.4375 290.273438 939.269531 297.558594 L 955.53125 289.875 C 952.953125 282.84375 949.304688 277.175781 944.597656 272.890625 C 939.894531 268.605469 934.660156 265.492188 928.929688 263.589844 C 923.183594 261.667969 917.148438 260.714844 910.828125 260.714844 C 903.867188 260.714844 897.449219 261.9375 891.574219 264.367188 C 885.699219 266.796875 880.546875 270.257812 876.097656 274.734375 C 871.648438 279.207031 868.222656 284.558594 865.839844 290.765625 C 863.453125 296.972656 862.253906 303.84375 862.253906 311.398438 C 862.253906 321.386719 864.351562 330.179688 868.542969 337.800781 C 872.734375 345.417969 878.515625 351.355469 885.859375 355.65625 Z M 885.878906 355.625 " fill-opacity="1" fill-rule="nonzero"/><path fill="#ffffff" d="M 976.832031 329.988281 C 976.832031 335.878906 977.953125 341.117188 980.226562 345.71875 C 982.480469 350.324219 985.8125 353.878906 990.195312 356.371094 C 994.582031 358.863281 1000.007812 360.117188 1006.457031 360.117188 L 1018.652344 360.117188 L 1018.652344 343.609375 L 1008.585938 343.609375 C 1004.203125 343.609375 1001 342.324219 999 339.765625 C 997 337.210938 996.007812 333.496094 996.007812 328.625 L 996.007812 278.335938 L 1018.652344 278.335938 L 1018.652344 262.589844 L 996.007812 262.589844 L 996.007812 230.539062 L 976.847656 242.046875 L 976.847656 262.589844 L 958.652344 262.589844 L 958.652344 278.335938 L 976.847656 278.335938 L 976.847656 329.972656 Z M 976.832031 329.988281 " fill-opacity="1" fill-rule="nonzero"/><path fill="#ffffff" d="M 1051.53125 308.113281 C 1051.53125 299.796875 1053.660156 293.144531 1057.917969 288.144531 C 1062.175781 283.160156 1067.597656 280.667969 1074.179688 280.667969 L 1083.859375 280.667969 L 1083.859375 260.699219 L 1078.242188 260.699219 C 1072.433594 260.699219 1067.25 262.175781 1062.671875 265.113281 C 1058.09375 268.050781 1054.382812 272.542969 1051.542969 278.542969 L 1051.542969 262.605469 L 1032.574219 262.605469 L 1032.574219 360.117188 L 1051.542969 360.117188 L 1051.542969 308.097656 Z M 1051.53125 308.113281 " fill-opacity="1" fill-rule="nonzero"/><path fill="#ffffff" d="M 1115.578125 262.621094 L 1096.613281 262.621094 L 1096.613281 360.132812 L 1115.578125 360.132812 Z M 1115.578125 262.621094 " fill-opacity="1" fill-rule="nonzero"/><path fill="#ffffff" d="M 1096.921875 242.761719 C 1099.429688 245 1102.507812 246.128906 1106.105469 246.128906 C 1109.707031 246.128906 1112.8125 245 1115.382812 242.761719 C 1117.964844 240.523438 1119.261719 237.539062 1119.261719 233.84375 C 1119.261719 230.144531 1117.964844 226.96875 1115.382812 224.730469 C 1112.8125 222.492188 1109.707031 221.367188 1106.105469 221.367188 C 1102.507812 221.367188 1099.429688 222.492188 1096.921875 224.730469 C 1094.402344 226.96875 1093.136719 230.015625 1093.136719 233.84375 C 1093.136719 237.667969 1094.402344 240.523438 1096.921875 242.761719 Z M 1096.921875 242.761719 " fill-opacity="1" fill-rule="nonzero"/><path fill="#ffffff" d="M 1209.0625 325.195312 C 1206.234375 332.371094 1202.359375 337.480469 1197.460938 340.558594 C 1192.546875 343.625 1186.949219 345.164062 1180.625 345.164062 C 1175.328125 345.164062 1170.460938 343.878906 1166.007812 341.320312 C 1161.566406 338.765625 1158.007812 334.957031 1155.363281 329.890625 C 1152.730469 324.84375 1151.394531 318.671875 1151.394531 311.367188 C 1151.394531 305.875 1152.164062 301.003906 1153.71875 296.78125 C 1155.269531 292.558594 1157.398438 289.035156 1160.105469 286.222656 C 1162.808594 283.414062 1165.949219 281.273438 1169.484375 279.796875 C 1173.035156 278.320312 1176.738281 277.589844 1180.605469 277.589844 C 1186.929688 277.589844 1192.546875 279.097656 1197.441406 282.097656 C 1202.335938 285.113281 1206.214844 290.257812 1209.042969 297.542969 L 1225.304688 289.859375 C 1222.734375 282.828125 1219.082031 277.160156 1214.382812 272.875 C 1209.671875 268.589844 1204.4375 265.476562 1198.707031 263.574219 C 1192.96875 261.652344 1186.929688 260.699219 1180.605469 260.699219 C 1173.640625 260.699219 1167.222656 261.921875 1161.351562 264.351562 C 1155.476562 266.78125 1150.324219 270.238281 1145.878906 274.714844 C 1141.425781 279.191406 1138 284.542969 1135.617188 290.75 C 1133.230469 296.957031 1132.035156 303.828125 1132.035156 311.386719 C 1132.035156 321.367188 1134.125 330.164062 1138.320312 337.78125 C 1142.515625 345.402344 1148.296875 351.335938 1155.640625 355.640625 C 1162.984375 359.925781 1171.328125 362.070312 1180.605469 362.070312 C 1186.929688 362.070312 1192.96875 361.117188 1198.707031 359.195312 C 1204.457031 357.273438 1209.671875 354.148438 1214.382812 349.796875 C 1219.082031 345.449219 1222.734375 339.8125 1225.304688 332.910156 L 1209.042969 325.226562 Z M 1209.0625 325.195312 " fill-opacity="1" fill-rule="nonzero"/><path fill="#ffffff" d="M 1258.023438 262.621094 L 1239.058594 262.621094 L 1239.058594 360.132812 L 1258.023438 360.132812 Z M 1258.023438 262.621094 " fill-opacity="1" fill-rule="nonzero"/><path fill="#ffffff" d="M 1239.34375 242.761719 C 1241.863281 245 1244.929688 246.128906 1248.53125 246.128906 C 1252.140625 246.128906 1255.234375 245 1257.816406 242.761719 C 1260.390625 240.523438 1261.683594 237.539062 1261.683594 233.84375 C 1261.683594 230.144531 1260.390625 226.96875 1257.816406 224.730469 C 1255.234375 222.492188 1252.140625 221.367188 1248.53125 221.367188 C 1244.929688 221.367188 1241.863281 222.492188 1239.34375 224.730469 C 1236.835938 226.96875 1235.570312 230.015625 1235.570312 233.84375 C 1235.570312 237.667969 1236.835938 240.523438 1239.34375 242.761719 Z M 1239.34375 242.761719 " fill-opacity="1" fill-rule="nonzero"/><path fill="#ffffff" d="M 1307.960938 230.574219 L 1288.796875 242.082031 L 1288.796875 262.621094 L 1270.601562 262.621094 L 1270.601562 278.367188 L 1288.796875 278.367188 L 1288.796875 330.003906 C 1288.796875 335.894531 1289.917969 341.132812 1292.191406 345.734375 C 1294.453125 350.339844 1297.777344 353.894531 1302.167969 356.386719 C 1306.550781 358.878906 1311.980469 360.132812 1318.429688 360.132812 L 1330.617188 360.132812 L 1330.617188 343.625 L 1320.558594 343.625 C 1316.167969 343.625 1312.96875 342.339844 1310.972656 339.78125 C 1308.96875 337.226562 1307.980469 333.511719 1307.980469 328.640625 L 1307.980469 278.351562 L 1330.617188 278.351562 L 1330.617188 262.605469 L 1307.980469 262.605469 L 1307.980469 230.558594 Z M 1307.960938 230.574219 " fill-opacity="1" fill-rule="nonzero"/><path fill="#ffffff" d="M 1413.242188 262.621094 L 1390.789062 308.6875 C 1389.359375 311.640625 1387.488281 315.65625 1385.171875 320.78125 C 1382.847656 315.671875 1380.976562 311.574219 1379.546875 308.496094 L 1357.6875 262.621094 L 1336.019531 262.621094 L 1375.308594 341.703125 L 1351.128906 391.992188 L 1372.027344 391.992188 L 1434.164062 262.621094 Z M 1413.242188 262.621094 " fill-opacity="1" fill-rule="nonzero"/><path fill="#ffffff" d="M 433.015625 466.691406 L 433.015625 483.960938 C 428.757812 478.074219 425.332031 473.40625 422.757812 469.945312 L 357.921875 382.992188 L 339.914062 382.992188 L 339.914062 517.34375 L 359.855469 517.34375 L 359.855469 416.390625 C 364.113281 422.277344 367.539062 426.945312 370.117188 430.40625 L 434.953125 517.359375 L 452.941406 517.359375 L 452.941406 383.007812 L 433.015625 383.007812 Z M 433.015625 466.691406 " fill-opacity="1" fill-rule="nonzero"/><path fill="#ffffff" d="M 546.8125 424.261719 C 539.320312 420.039062 530.742188 417.929688 521.074219 417.929688 C 513.984375 417.929688 507.390625 419.152344 501.34375 421.578125 C 495.277344 424.007812 489.992188 427.5 485.480469 432.039062 C 480.96875 436.578125 477.480469 441.960938 475.03125 448.167969 C 472.582031 454.375 471.347656 461.183594 471.347656 468.613281 C 471.347656 478.597656 473.507812 487.421875 477.832031 495.105469 C 482.152344 502.789062 488.089844 508.773438 495.628906 513.042969 C 503.183594 517.328125 511.710938 519.472656 521.269531 519.472656 C 528.359375 519.472656 534.9375 518.21875 541 515.726562 C 547.066406 513.234375 552.351562 509.742188 556.863281 505.265625 C 561.375 500.789062 564.867188 495.453125 567.3125 489.230469 C 569.761719 483.027344 570.996094 476.152344 570.996094 468.597656 C 570.996094 458.484375 568.835938 449.628906 564.511719 442.007812 C 560.191406 434.390625 554.285156 428.484375 546.8125 424.261719 Z M 549.324219 482.804688 C 547.773438 487.027344 545.644531 490.582031 542.9375 493.457031 C 540.234375 496.328125 537 498.535156 533.253906 500.074219 C 529.511719 501.613281 525.445312 502.375 521.058594 502.375 C 515.378906 502.375 510.257812 501.027344 505.679688 498.34375 C 501.101562 495.660156 497.484375 491.789062 494.84375 486.722656 C 492.203125 481.675781 490.875 475.628906 490.875 468.582031 C 490.875 463.199219 491.609375 458.46875 493.097656 454.375 C 494.585938 450.277344 496.683594 446.753906 499.390625 443.820312 C 502.09375 440.882812 505.328125 438.675781 509.074219 437.199219 C 512.816406 435.722656 516.820312 434.992188 521.074219 434.992188 C 527.011719 434.992188 532.261719 436.34375 536.839844 439.023438 C 541.417969 441.707031 545.035156 445.546875 547.675781 450.53125 C 550.316406 455.515625 551.644531 461.535156 551.644531 468.582031 C 551.644531 473.835938 550.875 478.566406 549.324219 482.789062 Z M 549.324219 482.804688 " fill-opacity="1" fill-rule="nonzero"/><path fill="#ffffff" d="M 617.34375 422.339844 C 612.765625 425.277344 609.050781 429.769531 606.21875 435.769531 L 606.21875 419.832031 L 587.253906 419.832031 L 587.253906 517.34375 L 606.21875 517.34375 L 606.21875 465.328125 C 606.21875 457.011719 608.347656 450.359375 612.605469 445.359375 C 616.863281 440.375 622.289062 437.882812 628.867188 437.882812 L 638.550781 437.882812 L 638.550781 417.914062 L 632.933594 417.914062 C 627.125 417.914062 621.9375 419.386719 617.359375 422.324219 Z M 617.34375 422.339844 " fill-opacity="1" fill-rule="nonzero"/><path fill="#ffffff" d="M 680.339844 387.800781 L 661.183594 399.308594 L 661.183594 419.847656 L 642.984375 419.847656 L 642.984375 435.59375 L 661.183594 435.59375 L 661.183594 487.234375 C 661.183594 493.121094 662.304688 498.359375 664.578125 502.964844 C 666.832031 507.566406 670.160156 511.121094 674.546875 513.613281 C 678.933594 516.105469 684.359375 517.359375 690.808594 517.359375 L 703.003906 517.359375 L 703.003906 500.851562 L 692.9375 500.851562 C 688.550781 500.851562 685.351562 499.566406 683.351562 497.011719 C 681.347656 494.457031 680.359375 490.742188 680.359375 485.867188 L 680.359375 435.578125 L 703.003906 435.578125 L 703.003906 419.832031 L 680.359375 419.832031 L 680.359375 387.785156 Z M 680.339844 387.800781 " fill-opacity="1" fill-rule="nonzero"/><path fill="#ffffff" d="M 783.683594 422.53125 C 778.257812 419.46875 772 417.929688 764.910156 417.929688 C 758.203125 417.929688 751.914062 419.691406 746.039062 423.214844 C 741.832031 425.738281 738.453125 429.4375 735.878906 434.277344 L 735.878906 383.007812 L 716.910156 383.007812 L 716.910156 517.359375 L 735.878906 517.359375 L 735.878906 459.582031 C 735.878906 451.785156 738.167969 445.660156 742.742188 441.246094 C 747.320312 436.832031 753.226562 434.628906 760.445312 434.628906 C 766.894531 434.628906 772.113281 436.800781 776.113281 441.152344 C 780.113281 445.5 782.117188 451.390625 782.117188 458.800781 L 782.117188 517.34375 L 801.273438 517.34375 L 801.273438 455.722656 C 801.273438 448.039062 799.6875 441.355469 796.535156 435.660156 C 793.367188 429.960938 789.078125 425.578125 783.667969 422.515625 Z M 783.683594 422.53125 " fill-opacity="1" fill-rule="nonzero"/><path fill="#ffffff" d="M 1012.25 383.007812 L 987.089844 468.230469 C 986.324219 471.042969 985.539062 473.804688 984.769531 476.488281 C 984 479.167969 983.089844 482.25 982.066406 485.691406 C 979.746094 478.40625 977.871094 472.582031 976.449219 468.230469 L 948.773438 382.816406 L 930.769531 382.816406 L 903.097656 468.613281 C 902.183594 471.421875 901.320312 474.183594 900.488281 476.867188 C 899.65625 479.550781 898.710938 482.566406 897.6875 485.882812 C 895.621094 478.597656 893.941406 472.773438 892.660156 468.421875 L 867.691406 383.007812 L 846.984375 383.007812 L 887.621094 517.550781 L 906.203125 517.550781 L 934.257812 432.136719 C 935.683594 428.039062 937.476562 422.53125 939.683594 415.628906 C 942.003906 422.53125 943.8125 428.039062 945.109375 432.136719 L 973.167969 517.550781 L 991.75 517.550781 L 1032.378906 383.007812 Z M 1012.25 383.007812 " fill-opacity="1" fill-rule="nonzero"/><path fill="#ffffff" d="M 1101.847656 424.167969 C 1095.007812 420.007812 1087.203125 417.929688 1078.429688 417.929688 C 1071.464844 417.929688 1065.117188 419.117188 1059.371094 421.484375 C 1053.621094 423.847656 1048.632812 427.277344 1044.375 431.753906 C 1040.113281 436.230469 1036.855469 441.582031 1034.589844 447.785156 C 1032.339844 453.992188 1031.199219 460.929688 1031.199219 468.613281 C 1031.199219 478.722656 1033.265625 487.582031 1037.398438 495.199219 C 1041.523438 502.820312 1047.203125 508.773438 1054.421875 513.058594 C 1061.640625 517.34375 1069.964844 519.488281 1079.394531 519.488281 C 1085.074219 519.488281 1090.574219 518.679688 1095.945312 517.089844 C 1101.28125 515.488281 1106.199219 512.867188 1110.652344 509.21875 C 1115.097656 505.566406 1118.941406 500.867188 1122.164062 495.105469 L 1107.445312 486.089844 C 1105.386719 490.058594 1102.9375 493.28125 1100.101562 495.789062 C 1097.269531 498.28125 1094.101562 500.074219 1090.605469 501.167969 C 1087.121094 502.265625 1083.375 502.804688 1079.394531 502.804688 C 1073.839844 502.804688 1068.875 501.519531 1064.492188 498.964844 C 1060.109375 496.40625 1056.644531 492.597656 1054.132812 487.535156 C 1052.140625 483.503906 1050.933594 478.660156 1050.535156 473.042969 L 1123.707031 473.042969 C 1123.839844 472.152344 1123.902344 471.246094 1123.902344 470.359375 L 1123.902344 467.867188 C 1123.902344 457.882812 1121.9375 449.152344 1117.996094 441.660156 C 1114.058594 434.167969 1108.667969 428.359375 1101.828125 424.199219 Z M 1057.816406 442.785156 C 1060.203125 439.785156 1063.132812 437.546875 1066.621094 436.070312 C 1070.109375 434.59375 1073.984375 433.867188 1078.242188 433.867188 C 1085.988281 433.867188 1092.34375 436.675781 1097.300781 442.308594 C 1100.851562 446.339844 1103.113281 451.914062 1104.121094 459.007812 L 1051.128906 459.007812 C 1051.429688 457.167969 1051.800781 455.375 1052.292969 453.738281 C 1053.589844 449.453125 1055.417969 445.800781 1057.816406 442.800781 Z M 1057.816406 442.785156 " fill-opacity="1" fill-rule="nonzero"/><path fill="#ffffff" d="M 1185.4375 461.691406 L 1175.761719 459.390625 C 1171.882812 458.375 1168.457031 457.277344 1165.503906 456.121094 C 1162.523438 454.960938 1160.136719 453.5625 1158.347656 451.898438 C 1156.535156 450.230469 1155.640625 448.054688 1155.640625 445.375 C 1155.640625 442.039062 1157.347656 439.324219 1160.761719 437.214844 C 1164.1875 435.105469 1168.671875 434.054688 1174.207031 434.054688 C 1179.742188 434.054688 1184.945312 435.292969 1189.398438 437.800781 C 1193.84375 440.292969 1196.96875 444.546875 1198.777344 450.5625 L 1214.648438 444.800781 C 1212.972656 438.914062 1210.207031 433.992188 1206.328125 430.023438 C 1202.449219 426.054688 1197.78125 423.054688 1192.289062 421.007812 C 1186.804688 418.960938 1180.789062 417.945312 1174.1875 417.945312 C 1166.832031 417.945312 1160.34375 419.132812 1154.746094 421.5 C 1149.128906 423.863281 1144.738281 427.132812 1141.589844 431.292969 C 1138.421875 435.453125 1136.851562 440.214844 1136.851562 445.597656 C 1136.851562 452.753906 1139.234375 458.800781 1144.007812 463.738281 C 1148.769531 468.660156 1156.453125 472.40625 1167.039062 474.960938 L 1176.910156 477.453125 C 1183.875 478.992188 1189.007812 480.757812 1192.289062 482.738281 C 1195.589844 484.722656 1197.226562 487.503906 1197.226562 491.089844 C 1197.226562 494.675781 1195.28125 497.644531 1191.414062 500.011719 C 1187.535156 502.375 1182.1875 503.566406 1175.339844 503.566406 C 1171.472656 503.566406 1167.726562 502.929688 1164.128906 501.644531 C 1160.507812 500.359375 1157.390625 498.421875 1154.746094 495.789062 C 1152.101562 493.167969 1150.140625 489.867188 1148.84375 485.898438 L 1133.363281 492.613281 C 1135.6875 498.882812 1138.917969 503.964844 1143.042969 507.867188 C 1147.175781 511.773438 1152.011719 514.675781 1157.566406 516.597656 C 1163.097656 518.519531 1169.035156 519.472656 1175.359375 519.472656 C 1183.617188 519.472656 1190.777344 518.21875 1196.835938 515.726562 C 1202.902344 513.234375 1207.574219 509.804688 1210.875 505.457031 C 1214.175781 501.105469 1215.800781 496.121094 1215.800781 490.484375 C 1215.800781 483.183594 1213.324219 477.214844 1208.34375 472.535156 C 1203.386719 467.867188 1195.734375 464.246094 1185.40625 461.691406 Z M 1185.4375 461.691406 " fill-opacity="1" fill-rule="nonzero"/><path fill="#ffffff" d="M 1257.644531 387.800781 L 1238.480469 399.308594 L 1238.480469 419.847656 L 1220.285156 419.847656 L 1220.285156 435.59375 L 1238.480469 435.59375 L 1238.480469 487.234375 C 1238.480469 493.121094 1239.601562 498.359375 1241.875 502.964844 C 1244.136719 507.566406 1247.460938 511.121094 1251.851562 513.613281 C 1256.234375 516.105469 1261.652344 517.359375 1268.113281 517.359375 L 1280.300781 517.359375 L 1280.300781 500.851562 L 1270.242188 500.851562 C 1265.851562 500.851562 1262.652344 499.566406 1260.644531 497.011719 C 1258.652344 494.457031 1257.652344 490.742188 1257.652344 485.867188 L 1257.652344 435.578125 L 1280.300781 435.578125 L 1280.300781 419.832031 L 1257.652344 419.832031 L 1257.652344 387.785156 Z M 1257.644531 387.800781 " fill-opacity="1" fill-rule="nonzero"/></svg>